# Blender 4.5.4 LTS
# www.blender.org
mtllib Tree1.mtl
o Cylinder.002
v -0.107735 -2.756270 -0.241015
v -0.107735 -0.756270 -0.241015
v -0.081501 -2.756270 -0.238431
v -0.081501 -0.756270 -0.238431
v -0.056275 -2.756270 -0.230779
v -0.056275 -0.756270 -0.230779
v -0.033027 -2.756270 -0.218353
v -0.033027 -0.756270 -0.218353
v -0.012650 -2.756270 -0.201630
v -0.012650 -0.756270 -0.201630
v 0.004073 -2.756270 -0.181253
v 0.004073 -0.756270 -0.181253
v 0.016500 -2.756270 -0.158005
v 0.016500 -0.756270 -0.158005
v 0.024152 -2.756270 -0.132779
v 0.024152 -0.756270 -0.132779
v 0.026735 -2.756270 -0.106545
v 0.026735 -0.756270 -0.106545
v 0.024152 -2.756270 -0.080311
v 0.024152 -0.756270 -0.080311
v 0.016500 -2.756270 -0.055085
v 0.016500 -0.756270 -0.055085
v 0.004073 -2.756270 -0.031837
v 0.004073 -0.756270 -0.031837
v -0.012650 -2.756270 -0.011460
v -0.012650 -0.756270 -0.011460
v -0.033027 -2.756270 0.005263
v -0.033027 -0.756270 0.005263
v -0.056275 -2.756270 0.017689
v -0.056275 -0.756270 0.017689
v -0.081501 -2.756270 0.025341
v -0.081501 -0.756270 0.025341
v -0.107735 -2.756270 0.027925
v -0.107735 -0.756270 0.027925
v -0.133968 -2.756270 0.025341
v -0.133968 -0.756270 0.025341
v -0.159194 -2.756270 0.017689
v -0.159194 -0.756270 0.017689
v -0.182443 -2.756270 0.005263
v -0.182443 -0.756270 0.005263
v -0.202820 -2.756270 -0.011460
v -0.202820 -0.756270 -0.011460
v -0.219543 -2.756270 -0.031837
v -0.219543 -0.756270 -0.031837
v -0.231969 -2.756270 -0.055085
v -0.231969 -0.756270 -0.055085
v -0.239621 -2.756270 -0.080311
v -0.239621 -0.756270 -0.080311
v -0.242205 -2.756270 -0.106545
v -0.242205 -0.756270 -0.106545
v -0.239621 -2.756270 -0.132779
v -0.239621 -0.756270 -0.132779
v -0.231969 -2.756270 -0.158005
v -0.231969 -0.756270 -0.158005
v -0.219543 -2.756270 -0.181253
v -0.219543 -0.756270 -0.181253
v -0.202820 -2.756270 -0.201630
v -0.202820 -0.756270 -0.201630
v -0.182443 -2.756270 -0.218353
v -0.182443 -0.756270 -0.218353
v -0.159194 -2.756270 -0.230779
v -0.159194 -0.756270 -0.230779
v -0.133968 -2.756270 -0.238431
v -0.133968 -0.756270 -0.238431
v 0.666685 -0.771923 -1.033773
v 1.379961 -0.227035 -0.515554
v 0.394243 -0.227036 -0.195269
v -0.214972 -0.227031 -1.033773
v 0.394243 -0.227036 -1.872276
v 1.379961 -0.227035 -1.551992
v 0.939127 0.654633 -0.195269
v -0.046591 0.654633 -0.515554
v -0.046591 0.654633 -1.551992
v 0.939127 0.654633 -1.872276
v 1.548341 0.654629 -1.033773
v 0.666685 1.199521 -1.033774
v 0.506549 -0.624710 -0.540916
v 1.085935 -0.624710 -0.729173
v 0.925800 -0.304432 -0.236312
v 1.505187 -0.304431 -1.033773
v 1.085935 -0.624710 -1.338372
v 0.148461 -0.624707 -1.033773
v -0.011679 -0.304431 -0.540915
v 0.506549 -0.624710 -1.526629
v -0.011679 -0.304431 -1.526631
v 0.925800 -0.304432 -1.831234
v 1.604164 0.213799 -0.729172
v 1.604164 0.213799 -1.338373
v 0.666685 0.213799 -0.048051
v 1.246078 0.213799 -0.236307
v -0.270794 0.213799 -0.729172
v 0.087292 0.213799 -0.236307
v 0.087292 0.213799 -1.831238
v -0.270794 0.213799 -1.338373
v 1.246078 0.213799 -1.831238
v 0.666685 0.213799 -2.019495
v 1.345049 0.732029 -0.540915
v 0.407570 0.732030 -0.236312
v -0.171817 0.732028 -1.033773
v 0.407570 0.732030 -1.831234
v 1.345049 0.732029 -1.526631
v 0.826821 1.052308 -0.540916
v 1.184909 1.052305 -1.033774
v 0.247436 1.052308 -0.729173
v 0.247436 1.052308 -1.338373
v 0.826821 1.052308 -1.526630
v 0.605436 -0.239824 0.548084
v 1.392276 0.361261 1.119750
v 0.304896 0.361261 1.473067
v -0.367149 0.361265 0.548084
v 0.304896 0.361261 -0.376899
v 1.392276 0.361261 -0.023581
v 0.905976 1.333861 1.473066
v -0.181403 1.333860 1.119749
v -0.181403 1.333860 -0.023582
v 0.905976 1.333861 -0.376900
v 1.578022 1.333856 0.548083
v 0.605436 1.934946 0.548083
v 0.428784 -0.077428 1.091772
v 1.067926 -0.077427 0.884099
v 0.891275 0.275882 1.427791
v 1.530418 0.275884 0.548084
v 1.067926 -0.077427 0.212070
v 0.033766 -0.077425 0.548084
v -0.142890 0.275883 1.091773
v 0.428784 -0.077428 0.004397
v -0.142890 0.275883 0.004395
v 0.891275 0.275882 -0.331623
v 1.639603 0.847561 0.884100
v 1.639603 0.847561 0.212069
v 0.605436 0.847561 1.635468
v 1.244585 0.847561 1.427796
v -0.428730 0.847561 0.884100
v -0.033712 0.847561 1.427796
v -0.033712 0.847561 -0.331628
v -0.428730 0.847561 0.212069
v 1.244585 0.847561 -0.331628
v 0.605436 0.847561 -0.539300
v 1.353763 1.419238 1.091772
v 0.319597 1.419240 1.427790
v -0.319546 1.419238 0.548083
v 0.319597 1.419240 -0.331624
v 1.353763 1.419238 0.004394
v 0.782088 1.772550 1.091771
v 1.177107 1.772546 0.548083
v 0.142947 1.772549 0.884098
v 0.142947 1.772549 0.212069
v 0.782088 1.772550 0.004396
v 0.697794 0.045756 0.568754
v 1.280084 0.490581 0.991808
v 0.475383 0.490580 1.253276
v -0.021955 0.490584 0.568754
v 0.475383 0.490580 -0.115767
v 1.280084 0.490581 0.145701
v 0.920205 1.210340 1.253275
v 0.115504 1.210340 0.991808
v 0.115504 1.210340 0.145700
v 0.920205 1.210340 -0.115768
v 1.417542 1.210337 0.568753
v 0.697794 1.655165 0.568753
v 0.567065 0.165935 0.971103
v 1.040053 0.165935 0.817417
v 0.909326 0.427397 1.219770
v 1.382315 0.427398 0.568754
v 1.040053 0.165935 0.320091
v 0.274736 0.165937 0.568754
v 0.144005 0.427398 0.971104
v 0.567065 0.165935 0.166406
v 0.144005 0.427398 0.166404
v 0.909326 0.427397 -0.082261
v 1.463115 0.850460 0.817418
v 1.463115 0.850460 0.320090
v 0.697794 0.850460 1.373458
v 1.170788 0.850460 1.219773
v -0.067527 0.850460 0.817418
v 0.224800 0.850460 1.219773
v 0.224800 0.850460 -0.082265
v -0.067527 0.850460 0.320090
v 1.170788 0.850460 -0.082265
v 0.697794 0.850460 -0.235950
v 1.251583 1.273523 0.971103
v 0.486262 1.273524 1.219769
v 0.013273 1.273523 0.568753
v 0.486262 1.273524 -0.082262
v 1.251583 1.273523 0.166404
v 0.828523 1.534986 0.971103
v 1.120852 1.534984 0.568753
v 0.355535 1.534986 0.817416
v 0.355535 1.534986 0.320090
v 0.828523 1.534986 0.166405
v -0.252373 -1.404460 1.063368
v 0.501998 -0.828178 1.611443
v -0.540510 -0.828179 1.950181
v -1.184824 -0.828174 1.063368
v -0.540510 -0.828179 0.176554
v 0.501998 -0.828178 0.515292
v 0.035766 0.104287 1.950181
v -1.006742 0.104286 1.611443
v -1.006742 0.104286 0.515292
v 0.035766 0.104287 0.176554
v 0.680079 0.104282 1.063368
v -0.252373 0.680567 1.063368
v -0.421736 -1.248765 1.584619
v 0.191032 -1.248765 1.385516
v 0.021671 -0.910035 1.906773
v 0.634439 -0.910033 1.063368
v 0.191032 -1.248765 0.741219
v -0.800453 -1.248762 1.063368
v -0.969820 -0.910033 1.584621
v -0.421736 -1.248765 0.542116
v -0.969820 -0.910033 0.542114
v 0.021671 -0.910035 0.219962
v 0.739118 -0.361946 1.385517
v 0.739118 -0.361946 0.741218
v -0.252373 -0.361946 2.105880
v 0.360402 -0.361946 1.906778
v -1.243864 -0.361946 1.385517
v -0.865147 -0.361946 1.906778
v -0.865147 -0.361946 0.219957
v -1.243864 -0.361946 0.741218
v 0.360402 -0.361946 0.219957
v -0.252373 -0.361946 0.020854
v 0.465074 0.186141 1.584621
v -0.526417 0.186142 1.906773
v -1.139185 0.186140 1.063368
v -0.526417 0.186142 0.219962
v 0.465074 0.186141 0.542114
v -0.083011 0.524872 1.584619
v 0.295708 0.524870 1.063368
v -0.695778 0.524872 1.385516
v -0.695778 0.524872 0.741219
v -0.083011 0.524872 0.542116
v -0.476330 -0.083890 -1.352829
v 0.353389 0.549951 -0.750009
v -0.793247 0.549951 -0.377438
v -1.501917 0.549956 -1.352829
v -0.793247 0.549951 -2.328218
v 0.353389 0.549951 -1.955647
v -0.159411 1.575553 -0.377439
v -1.306049 1.575553 -0.750010
v -1.306049 1.575553 -1.955648
v -0.159411 1.575553 -2.328218
v 0.549257 1.575548 -1.352829
v -0.476330 2.209394 -1.352829
v -0.662609 0.087356 -0.779512
v 0.011363 0.087356 -0.998503
v -0.174913 0.459919 -0.425181
v 0.499059 0.459921 -1.352829
v 0.011363 0.087356 -1.707154
v -1.079153 0.087359 -1.352829
v -1.265436 0.459921 -0.779511
v -0.662609 0.087356 -1.926144
v -1.265436 0.459921 -1.926147
v -0.174913 0.459919 -2.280475
v 0.614193 1.062752 -0.998501
v 0.614193 1.062752 -1.707156
v -0.476330 1.062752 -0.206186
v 0.197650 1.062752 -0.425176
v -1.566853 1.062752 -0.998501
v -1.150311 1.062752 -0.425176
v -1.150311 1.062752 -2.280481
v -1.566853 1.062752 -1.707156
v 0.197650 1.062752 -2.280481
v -0.476330 1.062752 -2.499470
v 0.312778 1.665583 -0.779512
v -0.777746 1.665585 -0.425182
v -1.451719 1.665583 -1.352829
v -0.777746 1.665585 -2.280476
v 0.312778 1.665583 -1.926147
v -0.290051 2.038148 -0.779513
v 0.126494 2.038145 -1.352829
v -0.964024 2.038148 -0.998504
v -0.964024 2.038148 -1.707155
v -0.290051 2.038148 -1.926145
v -0.473700 -1.159748 -0.399577
v 0.258682 -0.600264 0.132523
v -0.753439 -0.600264 0.461387
v -1.378971 -0.600260 -0.399577
v -0.753439 -0.600264 -1.260541
v 0.258682 -0.600264 -0.931677
v -0.193960 0.305021 0.461387
v -1.206081 0.305021 0.132523
v -1.206081 0.305021 -0.931677
v -0.193960 0.305021 -1.260541
v 0.431573 0.305017 -0.399577
v -0.473700 0.864505 -0.399577
v -0.638124 -1.008591 0.106481
v -0.043221 -1.008591 -0.086818
v -0.207644 -0.679734 0.419245
v 0.387263 -0.679733 -0.399577
v -0.043221 -1.008591 -0.712336
v -1.005804 -1.008588 -0.399577
v -1.170235 -0.679733 0.106483
v -0.638124 -1.008591 -0.905635
v -1.170235 -0.679733 -0.905637
v -0.207644 -0.679734 -1.218399
v 0.488892 -0.147621 -0.086817
v 0.488892 -0.147621 -0.712337
v -0.473700 -0.147621 0.612549
v 0.121214 -0.147621 0.419250
v -1.436291 -0.147621 -0.086817
v -1.068613 -0.147621 0.419250
v -1.068613 -0.147621 -1.218404
v -1.436291 -0.147621 -0.712337
v 0.121214 -0.147621 -1.218404
v -0.473700 -0.147621 -1.411703
v 0.222835 0.384490 0.106483
v -0.739756 0.384491 0.419245
v -1.334663 0.384490 -0.399577
v -0.739756 0.384491 -1.218399
v 0.222835 0.384490 -0.905637
v -0.309275 0.713348 0.106481
v 0.058405 0.713345 -0.399577
v -0.904181 0.713348 -0.086818
v -0.904181 0.713348 -0.712336
v -0.309275 0.713348 -0.905635
v -0.603312 -0.883929 0.768329
v 0.189145 -0.278553 1.344076
v -0.905996 -0.278553 1.699916
v -1.582840 -0.278549 0.768329
v -0.905996 -0.278553 -0.163257
v 0.189145 -0.278553 0.192583
v -0.300627 0.700990 1.699916
v -1.395769 0.700989 1.344076
v -1.395769 0.700989 0.192583
v -0.300627 0.700990 -0.163257
v 0.376217 0.700985 0.768329
v -0.603312 1.306365 0.768328
v -0.781225 -0.720374 1.315898
v -0.137521 -0.720373 1.106742
v -0.315432 -0.364542 1.654316
v 0.328273 -0.364540 0.768329
v -0.137521 -0.720373 0.429916
v -1.179064 -0.720371 0.768329
v -1.356981 -0.364540 1.315900
v -0.781225 -0.720374 0.220761
v -1.356981 -0.364540 0.220759
v -0.315432 -0.364542 -0.117658
v 0.438237 0.211218 1.106744
v 0.438237 0.211218 0.429915
v -0.603312 0.211218 1.863477
v 0.040401 0.211218 1.654322
v -1.644859 0.211218 1.106744
v -1.247023 0.211218 1.654322
v -1.247023 0.211218 -0.117663
v -1.644859 0.211218 0.429915
v 0.040401 0.211218 -0.117663
v -0.603312 0.211218 -0.326818
v 0.150357 0.786977 1.315900
v -0.891191 0.786978 1.654316
v -1.534897 0.786977 0.768329
v -0.891191 0.786978 -0.117658
v 0.150357 0.786977 0.220759
v -0.425398 1.142810 1.315897
v -0.027560 1.142807 0.768329
v -1.069103 1.142810 1.106741
v -1.069103 1.142810 0.429915
v -0.425398 1.142810 0.220760
vn 0.0980 -0.0000 -0.9952
vn 0.2903 -0.0000 -0.9569
vn 0.4714 -0.0000 -0.8819
vn 0.6344 -0.0000 -0.7730
vn 0.7730 -0.0000 -0.6344
vn 0.8819 -0.0000 -0.4714
vn 0.9569 -0.0000 -0.2903
vn 0.9952 -0.0000 -0.0980
vn 0.9952 -0.0000 0.0980
vn 0.9569 -0.0000 0.2903
vn 0.8819 -0.0000 0.4714
vn 0.7730 -0.0000 0.6344
vn 0.6344 -0.0000 0.7730
vn 0.4714 -0.0000 0.8819
vn 0.2903 -0.0000 0.9569
vn 0.0980 -0.0000 0.9952
vn -0.0980 -0.0000 0.9952
vn -0.2903 -0.0000 0.9569
vn -0.4714 -0.0000 0.8819
vn -0.6344 -0.0000 0.7730
vn -0.7730 -0.0000 0.6344
vn -0.8819 -0.0000 0.4714
vn -0.9569 -0.0000 0.2903
vn -0.9952 -0.0000 0.0980
vn -0.9952 -0.0000 -0.0980
vn -0.9569 -0.0000 -0.2903
vn -0.8819 -0.0000 -0.4714
vn -0.7730 -0.0000 -0.6344
vn -0.6344 -0.0000 -0.7730
vn -0.4714 -0.0000 -0.8819
vn -0.0000 1.0000 -0.0000
vn -0.2903 -0.0000 -0.9569
vn -0.0980 -0.0000 -0.9952
vn -0.0000 -1.0000 -0.0000
vn 0.1024 -0.9435 0.3151
vn 0.7002 -0.6617 0.2680
vn -0.2680 -0.9435 0.1947
vn -0.2680 -0.9435 -0.1947
vn 0.1024 -0.9435 -0.3151
vn 0.9050 -0.3304 0.2680
vn 0.0247 -0.3304 0.9435
vn -0.8897 -0.3304 0.3151
vn -0.5746 -0.3304 -0.7488
vn 0.5346 -0.3304 -0.7779
vn 0.8026 -0.1256 0.5831
vn -0.3066 -0.1256 0.9435
vn -0.9921 -0.1256 -0.0000
vn -0.3066 -0.1256 -0.9435
vn 0.8026 -0.1256 -0.5831
vn 0.4089 0.6617 0.6284
vn -0.4713 0.6617 0.5831
vn -0.7002 0.6617 -0.2680
vn 0.0385 0.6617 -0.7488
vn 0.7240 0.6617 -0.1947
vn 0.2680 0.9435 -0.1947
vn 0.4911 0.7947 -0.3568
vn 0.4089 0.6617 -0.6284
vn -0.1024 0.9435 -0.3151
vn -0.1876 0.7947 -0.5773
vn -0.4713 0.6617 -0.5831
vn -0.3313 0.9435 -0.0000
vn -0.6071 0.7947 -0.0000
vn -0.7002 0.6617 0.2680
vn -0.1024 0.9435 0.3151
vn -0.1876 0.7947 0.5773
vn 0.0385 0.6617 0.7488
vn 0.2680 0.9435 0.1947
vn 0.4911 0.7947 0.3568
vn 0.7240 0.6617 0.1947
vn 0.8897 0.3304 -0.3151
vn 0.7947 0.1876 -0.5773
vn 0.5746 0.3304 -0.7488
vn -0.0247 0.3304 -0.9435
vn -0.3035 0.1876 -0.9342
vn -0.5346 0.3304 -0.7779
vn -0.9050 0.3304 -0.2680
vn -0.9822 0.1876 -0.0000
vn -0.9050 0.3304 0.2680
vn -0.5346 0.3304 0.7779
vn -0.3035 0.1876 0.9342
vn -0.0247 0.3304 0.9435
vn 0.5746 0.3304 0.7488
vn 0.7947 0.1876 0.5773
vn 0.8897 0.3304 0.3151
vn 0.3066 0.1256 -0.9435
vn 0.3035 -0.1876 -0.9342
vn 0.0247 -0.3304 -0.9435
vn -0.8026 0.1256 -0.5831
vn -0.7947 -0.1876 -0.5773
vn -0.8897 -0.3304 -0.3151
vn -0.8026 0.1256 0.5831
vn -0.7947 -0.1876 0.5773
vn -0.5746 -0.3304 0.7488
vn 0.3066 0.1256 0.9435
vn 0.3035 -0.1876 0.9342
vn 0.5346 -0.3304 0.7779
vn 0.9921 0.1256 -0.0000
vn 0.9822 -0.1876 -0.0000
vn 0.9050 -0.3304 -0.2680
vn 0.4713 -0.6617 -0.5831
vn 0.1876 -0.7947 -0.5773
vn -0.0385 -0.6617 -0.7488
vn -0.4089 -0.6617 -0.6284
vn -0.4911 -0.7947 -0.3568
vn -0.7240 -0.6617 -0.1947
vn -0.7240 -0.6617 0.1947
vn -0.4911 -0.7947 0.3568
vn -0.4089 -0.6617 0.6284
vn 0.7002 -0.6617 -0.2680
vn 0.6071 -0.7947 -0.0000
vn 0.3313 -0.9435 -0.0000
vn -0.0385 -0.6617 0.7488
vn 0.1876 -0.7947 0.5773
vn 0.4713 -0.6617 0.5831
vt 1.000000 0.500000
vt 1.000000 1.000000
vt 0.968750 1.000000
vt 0.968750 0.500000
vt 0.937500 1.000000
vt 0.937500 0.500000
vt 0.906250 1.000000
vt 0.906250 0.500000
vt 0.875000 1.000000
vt 0.875000 0.500000
vt 0.843750 1.000000
vt 0.843750 0.500000
vt 0.812500 1.000000
vt 0.812500 0.500000
vt 0.781250 1.000000
vt 0.781250 0.500000
vt 0.750000 1.000000
vt 0.750000 0.500000
vt 0.718750 1.000000
vt 0.718750 0.500000
vt 0.687500 1.000000
vt 0.687500 0.500000
vt 0.656250 1.000000
vt 0.656250 0.500000
vt 0.625000 1.000000
vt 0.625000 0.500000
vt 0.593750 1.000000
vt 0.593750 0.500000
vt 0.562500 1.000000
vt 0.562500 0.500000
vt 0.531250 1.000000
vt 0.531250 0.500000
vt 0.500000 1.000000
vt 0.500000 0.500000
vt 0.468750 1.000000
vt 0.468750 0.500000
vt 0.437500 1.000000
vt 0.437500 0.500000
vt 0.406250 1.000000
vt 0.406250 0.500000
vt 0.375000 1.000000
vt 0.375000 0.500000
vt 0.343750 1.000000
vt 0.343750 0.500000
vt 0.312500 1.000000
vt 0.312500 0.500000
vt 0.281250 1.000000
vt 0.281250 0.500000
vt 0.250000 1.000000
vt 0.250000 0.500000
vt 0.218750 1.000000
vt 0.218750 0.500000
vt 0.187500 1.000000
vt 0.187500 0.500000
vt 0.156250 1.000000
vt 0.156250 0.500000
vt 0.125000 1.000000
vt 0.125000 0.500000
vt 0.093750 1.000000
vt 0.093750 0.500000
vt 0.062500 1.000000
vt 0.062500 0.500000
vt 0.296822 0.485388
vt 0.250000 0.490000
vt 0.203178 0.485388
vt 0.158156 0.471731
vt 0.116663 0.449553
vt 0.080294 0.419706
vt 0.050447 0.383337
vt 0.028269 0.341844
vt 0.014612 0.296822
vt 0.010000 0.250000
vt 0.014612 0.203178
vt 0.028269 0.158156
vt 0.050447 0.116663
vt 0.080294 0.080294
vt 0.116663 0.050447
vt 0.158156 0.028269
vt 0.203178 0.014612
vt 0.250000 0.010000
vt 0.296822 0.014612
vt 0.341844 0.028269
vt 0.383337 0.050447
vt 0.419706 0.080294
vt 0.449553 0.116663
vt 0.471731 0.158156
vt 0.485388 0.203178
vt 0.490000 0.250000
vt 0.485388 0.296822
vt 0.471731 0.341844
vt 0.449553 0.383337
vt 0.419706 0.419706
vt 0.383337 0.449553
vt 0.341844 0.471731
vt 0.031250 1.000000
vt 0.031250 0.500000
vt 0.000000 1.000000
vt 0.000000 0.500000
vt 0.750000 0.490000
vt 0.796822 0.485388
vt 0.841844 0.471731
vt 0.883337 0.449553
vt 0.919706 0.419706
vt 0.949553 0.383337
vt 0.971731 0.341844
vt 0.985388 0.296822
vt 0.990000 0.250000
vt 0.985388 0.203178
vt 0.971731 0.158156
vt 0.949553 0.116663
vt 0.919706 0.080294
vt 0.883337 0.050447
vt 0.841844 0.028269
vt 0.796822 0.014612
vt 0.750000 0.010000
vt 0.703178 0.014612
vt 0.658156 0.028269
vt 0.616663 0.050447
vt 0.580294 0.080294
vt 0.550447 0.116663
vt 0.528269 0.158156
vt 0.514612 0.203178
vt 0.510000 0.250000
vt 0.514612 0.296822
vt 0.528269 0.341844
vt 0.550447 0.383337
vt 0.580294 0.419706
vt 0.616663 0.449553
vt 0.658156 0.471731
vt 0.703178 0.485388
vt 0.181819 0.000000
vt 0.227273 0.078731
vt 0.136365 0.078731
vt 0.272728 0.157461
vt 0.318182 0.078731
vt 0.363637 0.157461
vt 0.909091 0.000000
vt 0.954545 0.078731
vt 0.863636 0.078731
vt 0.727273 0.000000
vt 0.772727 0.078731
vt 0.681818 0.078731
vt 0.545455 0.000000
vt 0.590909 0.078731
vt 0.500000 0.078731
vt 0.318182 0.236191
vt 0.090910 0.157461
vt 0.181819 0.157461
vt 0.136365 0.236191
vt 0.818182 0.157461
vt 0.909091 0.157461
vt 0.863636 0.236191
vt 0.636364 0.157461
vt 0.727273 0.157461
vt 0.681818 0.236191
vt 0.454546 0.157461
vt 0.545455 0.157461
vt 0.500000 0.236191
vt 0.227273 0.236191
vt 0.045455 0.236191
vt 0.772727 0.236191
vt 0.590909 0.236191
vt 0.409092 0.236191
vt 0.181819 0.314921
vt 0.272728 0.314921
vt 0.227273 0.393651
vt 0.000000 0.314921
vt 0.090910 0.314921
vt 0.045455 0.393651
vt 0.727273 0.314921
vt 0.818182 0.314921
vt 0.772727 0.393651
vt 0.545455 0.314921
vt 0.636364 0.314921
vt 0.590909 0.393651
vt 0.363637 0.314921
vt 0.454546 0.314921
vt 0.409092 0.393651
vt 0.500000 0.393651
vt 0.454546 0.472382
vt 0.681818 0.393651
vt 0.636364 0.472382
vt 0.863636 0.393651
vt 0.818182 0.472382
vt 0.909091 0.314921
vt 0.136365 0.393651
vt 0.090910 0.472382
vt 0.318182 0.393651
vt 0.272728 0.472382
vt 0.954545 0.236191
vt 1.000000 0.157461
vt 0.409092 0.078731
vt 0.363637 0.000000
s 1
usemtl Brown
f 1/1/1 2/2/1 4/3/1 3/4/1
f 3/4/2 4/3/2 6/5/2 5/6/2
f 5/6/3 6/5/3 8/7/3 7/8/3
f 7/8/4 8/7/4 10/9/4 9/10/4
f 9/10/5 10/9/5 12/11/5 11/12/5
f 11/12/6 12/11/6 14/13/6 13/14/6
f 13/14/7 14/13/7 16/15/7 15/16/7
f 15/16/8 16/15/8 18/17/8 17/18/8
f 17/18/9 18/17/9 20/19/9 19/20/9
f 19/20/10 20/19/10 22/21/10 21/22/10
f 21/22/11 22/21/11 24/23/11 23/24/11
f 23/24/12 24/23/12 26/25/12 25/26/12
f 25/26/13 26/25/13 28/27/13 27/28/13
f 27/28/14 28/27/14 30/29/14 29/30/14
f 29/30/15 30/29/15 32/31/15 31/32/15
f 31/32/16 32/31/16 34/33/16 33/34/16
f 33/34/17 34/33/17 36/35/17 35/36/17
f 35/36/18 36/35/18 38/37/18 37/38/18
f 37/38/19 38/37/19 40/39/19 39/40/19
f 39/40/20 40/39/20 42/41/20 41/42/20
f 41/42/21 42/41/21 44/43/21 43/44/21
f 43/44/22 44/43/22 46/45/22 45/46/22
f 45/46/23 46/45/23 48/47/23 47/48/23
f 47/48/24 48/47/24 50/49/24 49/50/24
f 49/50/25 50/49/25 52/51/25 51/52/25
f 51/52/26 52/51/26 54/53/26 53/54/26
f 53/54/27 54/53/27 56/55/27 55/56/27
f 55/56/28 56/55/28 58/57/28 57/58/28
f 57/58/29 58/57/29 60/59/29 59/60/29
f 59/60/30 60/59/30 62/61/30 61/62/30
f 4/63/31 2/64/31 64/65/31 62/66/31 60/67/31 58/68/31 56/69/31 54/70/31 52/71/31 50/72/31 48/73/31 46/74/31 44/75/31 42/76/31 40/77/31 38/78/31 36/79/31 34/80/31 32/81/31 30/82/31 28/83/31 26/84/31 24/85/31 22/86/31 20/87/31 18/88/31 16/89/31 14/90/31 12/91/31 10/92/31 8/93/31 6/94/31
f 61/62/32 62/61/32 64/95/32 63/96/32
f 63/96/33 64/95/33 2/97/33 1/98/33
f 1/99/34 3/100/34 5/101/34 7/102/34 9/103/34 11/104/34 13/105/34 15/106/34 17/107/34 19/108/34 21/109/34 23/110/34 25/111/34 27/112/34 29/113/34 31/114/34 33/115/34 35/116/34 37/117/34 39/118/34 41/119/34 43/120/34 45/121/34 47/122/34 49/123/34 51/124/34 53/125/34 55/126/34 57/127/34 59/128/34 61/129/34 63/130/34
usemtl Green
f 65/131/35 78/132/35 77/133/35
f 66/134/36 78/135/36 80/136/36
f 65/137/37 77/138/37 82/139/37
f 65/140/38 82/141/38 84/142/38
f 65/143/39 84/144/39 81/145/39
f 66/134/40 80/136/40 87/146/40
f 67/147/41 79/148/41 89/149/41
f 68/150/42 83/151/42 91/152/42
f 69/153/43 85/154/43 93/155/43
f 70/156/44 86/157/44 95/158/44
f 66/134/45 87/146/45 90/159/45
f 67/147/46 89/149/46 92/160/46
f 68/150/47 91/152/47 94/161/47
f 69/153/48 93/155/48 96/162/48
f 70/156/49 95/158/49 88/163/49
f 71/164/50 97/165/50 102/166/50
f 72/167/51 98/168/51 104/169/51
f 73/170/52 99/171/52 105/172/52
f 74/173/53 100/174/53 106/175/53
f 75/176/54 101/177/54 103/178/54
f 103/178/55 106/179/55 76/180/55
f 103/178/56 101/177/56 106/179/56
f 101/177/57 74/173/57 106/179/57
f 106/175/58 105/181/58 76/182/58
f 106/175/59 100/174/59 105/181/59
f 100/174/60 73/170/60 105/181/60
f 105/172/61 104/183/61 76/184/61
f 105/172/62 99/171/62 104/183/62
f 99/171/63 72/185/63 104/183/63
f 104/169/64 102/186/64 76/187/64
f 104/169/65 98/168/65 102/186/65
f 98/168/66 71/164/66 102/186/66
f 102/166/67 103/188/67 76/189/67
f 102/166/68 97/165/68 103/188/68
f 97/165/69 75/176/69 103/188/69
f 88/163/70 101/177/70 75/176/70
f 88/163/71 95/158/71 101/177/71
f 95/158/72 74/173/72 101/177/72
f 96/162/73 100/174/73 74/173/73
f 96/162/74 93/155/74 100/174/74
f 93/155/75 73/170/75 100/174/75
f 94/161/76 99/171/76 73/170/76
f 94/161/77 91/152/77 99/171/77
f 91/152/78 72/185/78 99/171/78
f 92/160/79 98/168/79 72/167/79
f 92/160/80 89/149/80 98/168/80
f 89/149/81 71/164/81 98/168/81
f 90/159/82 97/165/82 71/164/82
f 90/159/83 87/146/83 97/165/83
f 87/146/84 75/176/84 97/165/84
f 95/158/85 96/162/85 74/173/85
f 95/158/86 86/157/86 96/162/86
f 86/157/87 69/153/87 96/162/87
f 93/155/88 94/161/88 73/170/88
f 93/155/89 85/154/89 94/161/89
f 85/154/90 68/150/90 94/161/90
f 91/152/91 92/190/91 72/185/91
f 91/152/92 83/151/92 92/190/92
f 83/151/93 67/191/93 92/190/93
f 89/149/94 90/159/94 71/164/94
f 89/149/95 79/148/95 90/159/95
f 79/148/96 66/134/96 90/159/96
f 87/146/97 88/163/97 75/176/97
f 87/146/98 80/136/98 88/163/98
f 80/136/99 70/156/99 88/163/99
f 81/145/100 86/157/100 70/156/100
f 81/145/101 84/144/101 86/157/101
f 84/144/102 69/153/102 86/157/102
f 84/142/103 85/154/103 69/153/103
f 84/142/104 82/141/104 85/154/104
f 82/141/105 68/150/105 85/154/105
f 82/139/106 83/151/106 68/150/106
f 82/139/107 77/138/107 83/151/107
f 77/138/108 67/191/108 83/151/108
f 80/136/109 81/192/109 70/156/109
f 80/136/110 78/135/110 81/192/110
f 78/135/111 65/193/111 81/192/111
f 77/133/112 79/148/112 67/147/112
f 77/133/113 78/132/113 79/148/113
f 78/132/114 66/134/114 79/148/114
f 107/131/35 120/132/35 119/133/35
f 108/134/36 120/135/36 122/136/36
f 107/137/37 119/138/37 124/139/37
f 107/140/38 124/141/38 126/142/38
f 107/143/39 126/144/39 123/145/39
f 108/134/40 122/136/40 129/146/40
f 109/147/41 121/148/41 131/149/41
f 110/150/42 125/151/42 133/152/42
f 111/153/43 127/154/43 135/155/43
f 112/156/44 128/157/44 137/158/44
f 108/134/45 129/146/45 132/159/45
f 109/147/46 131/149/46 134/160/46
f 110/150/47 133/152/47 136/161/47
f 111/153/48 135/155/48 138/162/48
f 112/156/49 137/158/49 130/163/49
f 113/164/50 139/165/50 144/166/50
f 114/167/51 140/168/51 146/169/51
f 115/170/52 141/171/52 147/172/52
f 116/173/53 142/174/53 148/175/53
f 117/176/54 143/177/54 145/178/54
f 145/178/55 148/179/55 118/180/55
f 145/178/56 143/177/56 148/179/56
f 143/177/57 116/173/57 148/179/57
f 148/175/58 147/181/58 118/182/58
f 148/175/59 142/174/59 147/181/59
f 142/174/60 115/170/60 147/181/60
f 147/172/61 146/183/61 118/184/61
f 147/172/62 141/171/62 146/183/62
f 141/171/63 114/185/63 146/183/63
f 146/169/64 144/186/64 118/187/64
f 146/169/65 140/168/65 144/186/65
f 140/168/66 113/164/66 144/186/66
f 144/166/67 145/188/67 118/189/67
f 144/166/68 139/165/68 145/188/68
f 139/165/69 117/176/69 145/188/69
f 130/163/70 143/177/70 117/176/70
f 130/163/71 137/158/71 143/177/71
f 137/158/72 116/173/72 143/177/72
f 138/162/73 142/174/73 116/173/73
f 138/162/74 135/155/74 142/174/74
f 135/155/75 115/170/75 142/174/75
f 136/161/76 141/171/76 115/170/76
f 136/161/77 133/152/77 141/171/77
f 133/152/78 114/185/78 141/171/78
f 134/160/79 140/168/79 114/167/79
f 134/160/80 131/149/80 140/168/80
f 131/149/81 113/164/81 140/168/81
f 132/159/82 139/165/82 113/164/82
f 132/159/83 129/146/83 139/165/83
f 129/146/84 117/176/84 139/165/84
f 137/158/85 138/162/85 116/173/85
f 137/158/86 128/157/86 138/162/86
f 128/157/87 111/153/87 138/162/87
f 135/155/88 136/161/88 115/170/88
f 135/155/89 127/154/89 136/161/89
f 127/154/90 110/150/90 136/161/90
f 133/152/91 134/190/91 114/185/91
f 133/152/92 125/151/92 134/190/92
f 125/151/93 109/191/93 134/190/93
f 131/149/94 132/159/94 113/164/94
f 131/149/95 121/148/95 132/159/95
f 121/148/96 108/134/96 132/159/96
f 129/146/97 130/163/97 117/176/97
f 129/146/98 122/136/98 130/163/98
f 122/136/99 112/156/99 130/163/99
f 123/145/100 128/157/100 112/156/100
f 123/145/101 126/144/101 128/157/101
f 126/144/102 111/153/102 128/157/102
f 126/142/103 127/154/103 111/153/103
f 126/142/104 124/141/104 127/154/104
f 124/141/105 110/150/105 127/154/105
f 124/139/106 125/151/106 110/150/106
f 124/139/107 119/138/107 125/151/107
f 119/138/108 109/191/108 125/151/108
f 122/136/109 123/192/109 112/156/109
f 122/136/110 120/135/110 123/192/110
f 120/135/111 107/193/111 123/192/111
f 119/133/112 121/148/112 109/147/112
f 119/133/113 120/132/113 121/148/113
f 120/132/114 108/134/114 121/148/114
f 149/131/35 162/132/35 161/133/35
f 150/134/36 162/135/36 164/136/36
f 149/137/37 161/138/37 166/139/37
f 149/140/38 166/141/38 168/142/38
f 149/143/39 168/144/39 165/145/39
f 150/134/40 164/136/40 171/146/40
f 151/147/41 163/148/41 173/149/41
f 152/150/42 167/151/42 175/152/42
f 153/153/43 169/154/43 177/155/43
f 154/156/44 170/157/44 179/158/44
f 150/134/45 171/146/45 174/159/45
f 151/147/46 173/149/46 176/160/46
f 152/150/47 175/152/47 178/161/47
f 153/153/48 177/155/48 180/162/48
f 154/156/49 179/158/49 172/163/49
f 155/164/50 181/165/50 186/166/50
f 156/167/51 182/168/51 188/169/51
f 157/170/52 183/171/52 189/172/52
f 158/173/53 184/174/53 190/175/53
f 159/176/54 185/177/54 187/178/54
f 187/178/55 190/179/55 160/180/55
f 187/178/56 185/177/56 190/179/56
f 185/177/57 158/173/57 190/179/57
f 190/175/58 189/181/58 160/182/58
f 190/175/59 184/174/59 189/181/59
f 184/174/60 157/170/60 189/181/60
f 189/172/61 188/183/61 160/184/61
f 189/172/62 183/171/62 188/183/62
f 183/171/63 156/185/63 188/183/63
f 188/169/64 186/186/64 160/187/64
f 188/169/65 182/168/65 186/186/65
f 182/168/66 155/164/66 186/186/66
f 186/166/67 187/188/67 160/189/67
f 186/166/68 181/165/68 187/188/68
f 181/165/69 159/176/69 187/188/69
f 172/163/70 185/177/70 159/176/70
f 172/163/71 179/158/71 185/177/71
f 179/158/72 158/173/72 185/177/72
f 180/162/73 184/174/73 158/173/73
f 180/162/74 177/155/74 184/174/74
f 177/155/75 157/170/75 184/174/75
f 178/161/76 183/171/76 157/170/76
f 178/161/77 175/152/77 183/171/77
f 175/152/78 156/185/78 183/171/78
f 176/160/79 182/168/79 156/167/79
f 176/160/80 173/149/80 182/168/80
f 173/149/81 155/164/81 182/168/81
f 174/159/82 181/165/82 155/164/82
f 174/159/83 171/146/83 181/165/83
f 171/146/84 159/176/84 181/165/84
f 179/158/85 180/162/85 158/173/85
f 179/158/86 170/157/86 180/162/86
f 170/157/87 153/153/87 180/162/87
f 177/155/88 178/161/88 157/170/88
f 177/155/89 169/154/89 178/161/89
f 169/154/90 152/150/90 178/161/90
f 175/152/91 176/190/91 156/185/91
f 175/152/92 167/151/92 176/190/92
f 167/151/93 151/191/93 176/190/93
f 173/149/94 174/159/94 155/164/94
f 173/149/95 163/148/95 174/159/95
f 163/148/96 150/134/96 174/159/96
f 171/146/97 172/163/97 159/176/97
f 171/146/98 164/136/98 172/163/98
f 164/136/99 154/156/99 172/163/99
f 165/145/100 170/157/100 154/156/100
f 165/145/101 168/144/101 170/157/101
f 168/144/102 153/153/102 170/157/102
f 168/142/103 169/154/103 153/153/103
f 168/142/104 166/141/104 169/154/104
f 166/141/105 152/150/105 169/154/105
f 166/139/106 167/151/106 152/150/106
f 166/139/107 161/138/107 167/151/107
f 161/138/108 151/191/108 167/151/108
f 164/136/109 165/192/109 154/156/109
f 164/136/110 162/135/110 165/192/110
f 162/135/111 149/193/111 165/192/111
f 161/133/112 163/148/112 151/147/112
f 161/133/113 162/132/113 163/148/113
f 162/132/114 150/134/114 163/148/114
f 191/131/35 204/132/35 203/133/35
f 192/134/36 204/135/36 206/136/36
f 191/137/37 203/138/37 208/139/37
f 191/140/38 208/141/38 210/142/38
f 191/143/39 210/144/39 207/145/39
f 192/134/40 206/136/40 213/146/40
f 193/147/41 205/148/41 215/149/41
f 194/150/42 209/151/42 217/152/42
f 195/153/43 211/154/43 219/155/43
f 196/156/44 212/157/44 221/158/44
f 192/134/45 213/146/45 216/159/45
f 193/147/46 215/149/46 218/160/46
f 194/150/47 217/152/47 220/161/47
f 195/153/48 219/155/48 222/162/48
f 196/156/49 221/158/49 214/163/49
f 197/164/50 223/165/50 228/166/50
f 198/167/51 224/168/51 230/169/51
f 199/170/52 225/171/52 231/172/52
f 200/173/53 226/174/53 232/175/53
f 201/176/54 227/177/54 229/178/54
f 229/178/55 232/179/55 202/180/55
f 229/178/56 227/177/56 232/179/56
f 227/177/57 200/173/57 232/179/57
f 232/175/58 231/181/58 202/182/58
f 232/175/59 226/174/59 231/181/59
f 226/174/60 199/170/60 231/181/60
f 231/172/61 230/183/61 202/184/61
f 231/172/62 225/171/62 230/183/62
f 225/171/63 198/185/63 230/183/63
f 230/169/64 228/186/64 202/187/64
f 230/169/65 224/168/65 228/186/65
f 224/168/66 197/164/66 228/186/66
f 228/166/67 229/188/67 202/189/67
f 228/166/68 223/165/68 229/188/68
f 223/165/69 201/176/69 229/188/69
f 214/163/70 227/177/70 201/176/70
f 214/163/71 221/158/71 227/177/71
f 221/158/72 200/173/72 227/177/72
f 222/162/73 226/174/73 200/173/73
f 222/162/74 219/155/74 226/174/74
f 219/155/75 199/170/75 226/174/75
f 220/161/76 225/171/76 199/170/76
f 220/161/77 217/152/77 225/171/77
f 217/152/78 198/185/78 225/171/78
f 218/160/79 224/168/79 198/167/79
f 218/160/80 215/149/80 224/168/80
f 215/149/81 197/164/81 224/168/81
f 216/159/82 223/165/82 197/164/82
f 216/159/83 213/146/83 223/165/83
f 213/146/84 201/176/84 223/165/84
f 221/158/85 222/162/85 200/173/85
f 221/158/86 212/157/86 222/162/86
f 212/157/87 195/153/87 222/162/87
f 219/155/88 220/161/88 199/170/88
f 219/155/89 211/154/89 220/161/89
f 211/154/90 194/150/90 220/161/90
f 217/152/91 218/190/91 198/185/91
f 217/152/92 209/151/92 218/190/92
f 209/151/93 193/191/93 218/190/93
f 215/149/94 216/159/94 197/164/94
f 215/149/95 205/148/95 216/159/95
f 205/148/96 192/134/96 216/159/96
f 213/146/97 214/163/97 201/176/97
f 213/146/98 206/136/98 214/163/98
f 206/136/99 196/156/99 214/163/99
f 207/145/100 212/157/100 196/156/100
f 207/145/101 210/144/101 212/157/101
f 210/144/102 195/153/102 212/157/102
f 210/142/103 211/154/103 195/153/103
f 210/142/104 208/141/104 211/154/104
f 208/141/105 194/150/105 211/154/105
f 208/139/106 209/151/106 194/150/106
f 208/139/107 203/138/107 209/151/107
f 203/138/108 193/191/108 209/151/108
f 206/136/109 207/192/109 196/156/109
f 206/136/110 204/135/110 207/192/110
f 204/135/111 191/193/111 207/192/111
f 203/133/112 205/148/112 193/147/112
f 203/133/113 204/132/113 205/148/113
f 204/132/114 192/134/114 205/148/114
f 233/131/35 246/132/35 245/133/35
f 234/134/36 246/135/36 248/136/36
f 233/137/37 245/138/37 250/139/37
f 233/140/38 250/141/38 252/142/38
f 233/143/39 252/144/39 249/145/39
f 234/134/40 248/136/40 255/146/40
f 235/147/41 247/148/41 257/149/41
f 236/150/42 251/151/42 259/152/42
f 237/153/43 253/154/43 261/155/43
f 238/156/44 254/157/44 263/158/44
f 234/134/45 255/146/45 258/159/45
f 235/147/46 257/149/46 260/160/46
f 236/150/47 259/152/47 262/161/47
f 237/153/48 261/155/48 264/162/48
f 238/156/49 263/158/49 256/163/49
f 239/164/50 265/165/50 270/166/50
f 240/167/51 266/168/51 272/169/51
f 241/170/52 267/171/52 273/172/52
f 242/173/53 268/174/53 274/175/53
f 243/176/54 269/177/54 271/178/54
f 271/178/55 274/179/55 244/180/55
f 271/178/56 269/177/56 274/179/56
f 269/177/57 242/173/57 274/179/57
f 274/175/58 273/181/58 244/182/58
f 274/175/59 268/174/59 273/181/59
f 268/174/60 241/170/60 273/181/60
f 273/172/61 272/183/61 244/184/61
f 273/172/62 267/171/62 272/183/62
f 267/171/63 240/185/63 272/183/63
f 272/169/64 270/186/64 244/187/64
f 272/169/65 266/168/65 270/186/65
f 266/168/66 239/164/66 270/186/66
f 270/166/67 271/188/67 244/189/67
f 270/166/68 265/165/68 271/188/68
f 265/165/69 243/176/69 271/188/69
f 256/163/70 269/177/70 243/176/70
f 256/163/71 263/158/71 269/177/71
f 263/158/72 242/173/72 269/177/72
f 264/162/73 268/174/73 242/173/73
f 264/162/74 261/155/74 268/174/74
f 261/155/75 241/170/75 268/174/75
f 262/161/76 267/171/76 241/170/76
f 262/161/77 259/152/77 267/171/77
f 259/152/78 240/185/78 267/171/78
f 260/160/79 266/168/79 240/167/79
f 260/160/80 257/149/80 266/168/80
f 257/149/81 239/164/81 266/168/81
f 258/159/82 265/165/82 239/164/82
f 258/159/83 255/146/83 265/165/83
f 255/146/84 243/176/84 265/165/84
f 263/158/85 264/162/85 242/173/85
f 263/158/86 254/157/86 264/162/86
f 254/157/87 237/153/87 264/162/87
f 261/155/88 262/161/88 241/170/88
f 261/155/89 253/154/89 262/161/89
f 253/154/90 236/150/90 262/161/90
f 259/152/91 260/190/91 240/185/91
f 259/152/92 251/151/92 260/190/92
f 251/151/93 235/191/93 260/190/93
f 257/149/94 258/159/94 239/164/94
f 257/149/95 247/148/95 258/159/95
f 247/148/96 234/134/96 258/159/96
f 255/146/97 256/163/97 243/176/97
f 255/146/98 248/136/98 256/163/98
f 248/136/99 238/156/99 256/163/99
f 249/145/100 254/157/100 238/156/100
f 249/145/101 252/144/101 254/157/101
f 252/144/102 237/153/102 254/157/102
f 252/142/103 253/154/103 237/153/103
f 252/142/104 250/141/104 253/154/104
f 250/141/105 236/150/105 253/154/105
f 250/139/106 251/151/106 236/150/106
f 250/139/107 245/138/107 251/151/107
f 245/138/108 235/191/108 251/151/108
f 248/136/109 249/192/109 238/156/109
f 248/136/110 246/135/110 249/192/110
f 246/135/111 233/193/111 249/192/111
f 245/133/112 247/148/112 235/147/112
f 245/133/113 246/132/113 247/148/113
f 246/132/114 234/134/114 247/148/114
f 275/131/35 288/132/35 287/133/35
f 276/134/36 288/135/36 290/136/36
f 275/137/37 287/138/37 292/139/37
f 275/140/38 292/141/38 294/142/38
f 275/143/39 294/144/39 291/145/39
f 276/134/40 290/136/40 297/146/40
f 277/147/41 289/148/41 299/149/41
f 278/150/42 293/151/42 301/152/42
f 279/153/43 295/154/43 303/155/43
f 280/156/44 296/157/44 305/158/44
f 276/134/45 297/146/45 300/159/45
f 277/147/46 299/149/46 302/160/46
f 278/150/47 301/152/47 304/161/47
f 279/153/48 303/155/48 306/162/48
f 280/156/49 305/158/49 298/163/49
f 281/164/50 307/165/50 312/166/50
f 282/167/51 308/168/51 314/169/51
f 283/170/52 309/171/52 315/172/52
f 284/173/53 310/174/53 316/175/53
f 285/176/54 311/177/54 313/178/54
f 313/178/55 316/179/55 286/180/55
f 313/178/56 311/177/56 316/179/56
f 311/177/57 284/173/57 316/179/57
f 316/175/58 315/181/58 286/182/58
f 316/175/59 310/174/59 315/181/59
f 310/174/60 283/170/60 315/181/60
f 315/172/61 314/183/61 286/184/61
f 315/172/62 309/171/62 314/183/62
f 309/171/63 282/185/63 314/183/63
f 314/169/64 312/186/64 286/187/64
f 314/169/65 308/168/65 312/186/65
f 308/168/66 281/164/66 312/186/66
f 312/166/67 313/188/67 286/189/67
f 312/166/68 307/165/68 313/188/68
f 307/165/69 285/176/69 313/188/69
f 298/163/70 311/177/70 285/176/70
f 298/163/71 305/158/71 311/177/71
f 305/158/72 284/173/72 311/177/72
f 306/162/73 310/174/73 284/173/73
f 306/162/74 303/155/74 310/174/74
f 303/155/75 283/170/75 310/174/75
f 304/161/76 309/171/76 283/170/76
f 304/161/77 301/152/77 309/171/77
f 301/152/78 282/185/78 309/171/78
f 302/160/79 308/168/79 282/167/79
f 302/160/80 299/149/80 308/168/80
f 299/149/81 281/164/81 308/168/81
f 300/159/82 307/165/82 281/164/82
f 300/159/83 297/146/83 307/165/83
f 297/146/84 285/176/84 307/165/84
f 305/158/85 306/162/85 284/173/85
f 305/158/86 296/157/86 306/162/86
f 296/157/87 279/153/87 306/162/87
f 303/155/88 304/161/88 283/170/88
f 303/155/89 295/154/89 304/161/89
f 295/154/90 278/150/90 304/161/90
f 301/152/91 302/190/91 282/185/91
f 301/152/92 293/151/92 302/190/92
f 293/151/93 277/191/93 302/190/93
f 299/149/94 300/159/94 281/164/94
f 299/149/95 289/148/95 300/159/95
f 289/148/96 276/134/96 300/159/96
f 297/146/97 298/163/97 285/176/97
f 297/146/98 290/136/98 298/163/98
f 290/136/99 280/156/99 298/163/99
f 291/145/100 296/157/100 280/156/100
f 291/145/101 294/144/101 296/157/101
f 294/144/102 279/153/102 296/157/102
f 294/142/103 295/154/103 279/153/103
f 294/142/104 292/141/104 295/154/104
f 292/141/105 278/150/105 295/154/105
f 292/139/106 293/151/106 278/150/106
f 292/139/107 287/138/107 293/151/107
f 287/138/108 277/191/108 293/151/108
f 290/136/109 291/192/109 280/156/109
f 290/136/110 288/135/110 291/192/110
f 288/135/111 275/193/111 291/192/111
f 287/133/112 289/148/112 277/147/112
f 287/133/113 288/132/113 289/148/113
f 288/132/114 276/134/114 289/148/114
f 317/131/35 330/132/35 329/133/35
f 318/134/36 330/135/36 332/136/36
f 317/137/37 329/138/37 334/139/37
f 317/140/38 334/141/38 336/142/38
f 317/143/39 336/144/39 333/145/39
f 318/134/40 332/136/40 339/146/40
f 319/147/41 331/148/41 341/149/41
f 320/150/42 335/151/42 343/152/42
f 321/153/43 337/154/43 345/155/43
f 322/156/44 338/157/44 347/158/44
f 318/134/45 339/146/45 342/159/45
f 319/147/46 341/149/46 344/160/46
f 320/150/47 343/152/47 346/161/47
f 321/153/48 345/155/48 348/162/48
f 322/156/49 347/158/49 340/163/49
f 323/164/50 349/165/50 354/166/50
f 324/167/51 350/168/51 356/169/51
f 325/170/52 351/171/52 357/172/52
f 326/173/53 352/174/53 358/175/53
f 327/176/54 353/177/54 355/178/54
f 355/178/55 358/179/55 328/180/55
f 355/178/56 353/177/56 358/179/56
f 353/177/57 326/173/57 358/179/57
f 358/175/58 357/181/58 328/182/58
f 358/175/59 352/174/59 357/181/59
f 352/174/60 325/170/60 357/181/60
f 357/172/61 356/183/61 328/184/61
f 357/172/62 351/171/62 356/183/62
f 351/171/63 324/185/63 356/183/63
f 356/169/64 354/186/64 328/187/64
f 356/169/65 350/168/65 354/186/65
f 350/168/66 323/164/66 354/186/66
f 354/166/67 355/188/67 328/189/67
f 354/166/68 349/165/68 355/188/68
f 349/165/69 327/176/69 355/188/69
f 340/163/70 353/177/70 327/176/70
f 340/163/71 347/158/71 353/177/71
f 347/158/72 326/173/72 353/177/72
f 348/162/73 352/174/73 326/173/73
f 348/162/74 345/155/74 352/174/74
f 345/155/75 325/170/75 352/174/75
f 346/161/76 351/171/76 325/170/76
f 346/161/77 343/152/77 351/171/77
f 343/152/78 324/185/78 351/171/78
f 344/160/79 350/168/79 324/167/79
f 344/160/80 341/149/80 350/168/80
f 341/149/81 323/164/81 350/168/81
f 342/159/82 349/165/82 323/164/82
f 342/159/83 339/146/83 349/165/83
f 339/146/84 327/176/84 349/165/84
f 347/158/85 348/162/85 326/173/85
f 347/158/86 338/157/86 348/162/86
f 338/157/87 321/153/87 348/162/87
f 345/155/88 346/161/88 325/170/88
f 345/155/89 337/154/89 346/161/89
f 337/154/90 320/150/90 346/161/90
f 343/152/91 344/190/91 324/185/91
f 343/152/92 335/151/92 344/190/92
f 335/151/93 319/191/93 344/190/93
f 341/149/94 342/159/94 323/164/94
f 341/149/95 331/148/95 342/159/95
f 331/148/96 318/134/96 342/159/96
f 339/146/97 340/163/97 327/176/97
f 339/146/98 332/136/98 340/163/98
f 332/136/99 322/156/99 340/163/99
f 333/145/100 338/157/100 322/156/100
f 333/145/101 336/144/101 338/157/101
f 336/144/102 321/153/102 338/157/102
f 336/142/103 337/154/103 321/153/103
f 336/142/104 334/141/104 337/154/104
f 334/141/105 320/150/105 337/154/105
f 334/139/106 335/151/106 320/150/106
f 334/139/107 329/138/107 335/151/107
f 329/138/108 319/191/108 335/151/108
f 332/136/109 333/192/109 322/156/109
f 332/136/110 330/135/110 333/192/110
f 330/135/111 317/193/111 333/192/111
f 329/133/112 331/148/112 319/147/112
f 329/133/113 330/132/113 331/148/113
f 330/132/114 318/134/114 331/148/114
